# xmcd
#
# Track frame offsets:
#	150
#	22783
#	61731
#	81730
#	96243
#	114418
#	134449
#	155271
#	173078
#	185907
#	203604
#	224043
#	235536
#	249861
#	270972
#	283716
#	299988
#	311391
#
# Disc length: 4486
#
# Revision: 5
# Processed by: cddbd v1.5.1PL0 Copyright (c) Steve Scherf et al.
# Submitted via: EasyCDDAExtractor 7.0.6.1
# Normalized: r4:DSETVAR1
#
DISCID=03118412
DTITLE=Various Artist - While My Guitar Gently Weeps [CD2/2)
DYEAR=2002
DGENRE=Blues
TTITLE0=Robert Plant - Big Log
TTITLE1=Prince - Purple Rain
TTITLE2=Chris Rea - The Road To Hell (Part 2)
TTITLE3=Gary Moore - Parisienne Walkways
TTITLE4=The Allman Brothers Band - Jessica
TTITLE5=Mathews' Southern Comfort - Woodstock
TTITLE6=Lynyrd Skynyrd - Sweet Home Alabama
TTITLE7=Joe Walsh - Turn To Stone
TTITLE8=Fleetwood Mac - Black Magic Woman
TTITLE9=Toto - Hold The Line
TTITLE10=Boston - More Than A Feeling
TTITLE11=Steve Earle - Guitar Town
TTITLE12=Robert Palmer - Bad Case Of Loving You (Doctor Doctor)
TTITLE13=Wishbone Ash - Jail Bait
TTITLE14=J.J.Cale - Cocaine
TTITLE15=Justin Hayward and John Lodge - Blue Guitar
TTITLE16=Mark Knopfler - Going Home - Theme Of The Local Hero
TTITLE17=Thin Lizzy - Whisky In The Jar
EXTD=
EXTT0=
EXTT1=
EXTT2=
EXTT3=
EXTT4=
EXTT5=
EXTT6=
EXTT7=
EXTT8=
EXTT9=
EXTT10=
EXTT11=
EXTT12=
EXTT13=
EXTT14=
EXTT15=
EXTT16=
EXTT17=
PLAYORDER=
